HIERARCHY
ROOT Hips
{
	OFFSET 0.000000 0.000000 0.000000 
	CHANNELS 6 Xposition Yposition Zposition Yrotation Zrotation Xrotation 
	JOINT Lumbar
	{
		OFFSET 0.000000 0.000000 0.000000 
		CHANNELS 3 Zrotation Xrotation Yrotation
		JOINT Neck
		{
			OFFSET 0.000000 0.445665 0.000000 
			CHANNELS 3 Zrotation Xrotation Yrotation
			End Site
			{
				OFFSET 0.000000 0.227535 0.000000 
			}
		}
		JOINT RightShoulder
		{
			OFFSET 0.019635 0.377685 0.194865 
			CHANNELS 3 Zrotation Xrotation Yrotation
			JOINT RightElbow
			{
				OFFSET 0.000000 -0.243375 0.000000 
				CHANNELS 2 Zrotation Yrotation
				JOINT RightWrist
				{
					OFFSET 0.000000 -0.264825 0.000000 
					CHANNELS 2 Zrotation Xrotation
					End Site
					{
						OFFSET 0.006600 -0.176220 0.000990 
					}
				}
			}
		}
		JOINT LeftShoulder
		{
			OFFSET 0.019635 0.377685 -0.194865 
			CHANNELS 3 Zrotation Xrotation Yrotation
			JOINT LeftElbow
			{
				OFFSET 0.000000 -0.243375 0.000000 
				CHANNELS 2 Zrotation Yrotation
				JOINT LeftWrist
				{
					OFFSET 0.000000 -0.264825 0.000000 
					CHANNELS 2 Zrotation Xrotation
					End Site
					{
						OFFSET 0.006600 -0.176220 -0.000990 
					}
				}
			}
		}
	}
	JOINT RightHip
	{
		OFFSET 0.052140 -0.069960 0.075570 
		CHANNELS 3 Zrotation Xrotation Yrotation
		JOINT RightKnee
		{
			OFFSET 0.000000 -0.402270 0.000000 
			CHANNELS 1 Zrotation
			JOINT RightAnkle
			{
				OFFSET 0.000000 -0.404085 0.000000 
				CHANNELS 3 Zrotation Xrotation Yrotation
				End Site
				{
					OFFSET 0.204105 -0.089430 0.008415 
				}
			}
		}
	}
	JOINT LeftHip
	{
		OFFSET 0.052140 -0.069960 -0.075570 
		CHANNELS 3 Zrotation Xrotation Yrotation
		JOINT LeftKnee
		{
			OFFSET 0.000000 -0.402270 0.000000 
			CHANNELS 1 Zrotation
			JOINT LeftAnkle
			{
				OFFSET 0.000000 -0.404085 0.000000 
				CHANNELS 3 Zrotation Xrotation Yrotation
				End Site
				{
					OFFSET 0.204105 -0.089430 -0.008415 
				}
			}
		}
	}
}
MOTION
Frames: 11
Frame Time: 0.02
-0 0.95578 -0 177.912 0 -4.0559 5.25765 4.72713 0.22118 -26.39399 0.99143 0.53498 15.72351 -69.57606 -77.19908 22.36783 59.5193 -23.65823 -0.55686 38.48373 72.82461 53.91615 15.7395 -73.32399 -26.59765 2.51047 -3.702 8.72766 2.1291 -6.91825 -0.19273 -8.21397 -18.32147 -3.60945 2.34876 3.54318 -4.04411 5.78658 5.88017 8.42096
1e-05 0.95578 6e-05 177.99623 0 -4.04647 5.26876 4.71894 0.15558 -26.40844 0.98477 0.54039 15.48148 -69.60206 -77.4437 22.38552 59.53993 -23.73425 -0.52925 38.41972 72.82862 53.93391 15.75636 -73.27499 -26.59055 2.51626 -3.70714 8.62106 0.45722 -6.92472 0.15473 -7.60944 -16.63959 -3.60855 2.33994 3.44376 -4.02628 5.76654 5.8671 8.44763
2e-05 0.95578 0.00012 178.08006 0 -4.03709 5.27983 4.71076 0.09044 -26.42289 0.97819 0.54567 15.24083 -69.62808 -77.68695 22.4032 59.5603 -23.80974 -0.50183 38.35606 72.83257 53.95156 15.77323 -73.22637 -26.58348 2.52199 -3.71217 8.51536 -1.20018 -6.93122 0.49945 -7.00935 -14.97256 -3.60755 2.33115 3.34495 -4.00866 5.74663 5.85419 8.47401
3e-05 0.95578 0.00018 178.16308 0 -4.02779 5.29084 4.70258 0.02643 -26.43723 0.97191 0.55047 15.00294 -69.65433 -77.92724 22.42085 59.58021 -23.88404 -0.47479 38.29285 72.8364 53.96961 15.78992 -73.17878 -26.57659 2.52772 -3.71693 8.4118 -2.82338 -6.93787 0.83683 -6.42217 -13.34115 -3.60621 2.32245 3.24769 -3.99175 5.72704 5.84183 8.49943
3e-05 0.95578 0.00024 178.25036 0 -4.01804 5.30219 4.69445 -0.04361 -26.45185 0.96409 0.5578 14.74992 -69.67924 -78.1834 22.43847 59.60302 -23.96489 -0.44562 38.22682 72.84093 53.98635 15.80707 -73.12579 -26.56888 2.53368 -3.72328 8.29642 -4.63648 -6.94371 1.21339 -5.76785 -11.51238 -3.60673 2.31331 3.14233 -3.97114 5.70576 5.82663 8.52983
5e-05 0.95578 0.0003 178.32856 0 -4.00926 5.31281 4.6862 -0.10081 -26.46608 0.95953 0.5598 14.52952 -69.70706 -78.40562 22.45626 59.61936 -24.03163 -0.42102 38.16713 72.84394 54.00529 15.82356 -73.08423 -26.56284 2.53902 -3.72618 8.20651 -6.04024 -6.95124 1.5065 -5.25532 -10.10873 -3.60329 2.30512 3.05414 -3.95834 5.68807 5.8174 8.54975
0.00011 0.95578 0.00035 178.38292 0 -4.00283 5.32157 4.6775 -0.12297 -26.47779 0.96433 0.54615 14.39418 -69.74302 -78.53706 22.47425 59.62027 -24.06132 -0.40846 38.12145 72.8431 54.0352 15.83643 -73.07364 -26.56201 2.54367 -3.71978 8.18363 -6.36443 -6.96387 1.57075 -5.1422 -9.82983 -3.58863 2.29937 3.01323 -3.96794 5.68015 5.82535 8.53969
0.00018 0.95578 0.00041 178.42795 0 -3.99741 5.32959 4.66869 -0.13211 -26.48943 0.97238 0.52725 14.29317 -69.78194 -78.63331 22.4926 59.61428 -24.07648 -0.40055 38.08279 72.84065 54.06602 15.84927 -73.07407 -26.56269 2.54742 -3.70983 8.18686 -6.2691 -6.97814 1.55065 -5.17096 -9.9861 -3.57 2.2946 2.98963 -3.98532 5.67585 5.8392 8.51926
0.00026 0.95578 0.00047 178.47655 0 -3.9917 5.33786 4.66 -0.14696 -26.50198 0.97872 0.51133 14.17879 -69.81949 -78.7446 22.51087 59.60973 -24.09705 -0.39091 38.0431 72.8387 54.09387 15.86295 -73.07064 -26.56236 2.55102 -3.70134 8.18049 -6.3295 -6.99136 1.568 -5.12918 -9.97853 -3.55338 2.28948 2.95815 -3.9986 5.66997 5.84987 8.50423
0.00031 0.95579 0.00053 178.52803 0 -3.98526 5.34646 4.65102 -0.16269 -26.5106 0.98604 0.49295 14.05247 -69.85714 -78.8621 22.52834 59.61195 -24.12254 -0.3798 37.9942 72.83773 54.13437 15.87198 -73.06495 -26.56368 2.55731 -3.69352 8.16529 -6.52603 -7.00579 1.58855 -5.11173 -9.83915 -3.53597 2.28393 2.92676 -4.01416 5.66383 5.86259 8.48622
0.0004 0.95579 0.00059 178.57119 0 -3.98059 5.35423 4.64261 -0.17347 -26.52768 0.99212 0.47838 13.96235 -69.8953 -78.95552 22.54813 59.5989 -24.13445 -0.37268 37.96629 72.83433 54.14637 15.89216 -73.06336 -26.5616 2.55738 -3.68343 8.1738 -6.35339 -7.01816 1.58305 -5.07892 -10.0635 -3.51917 2.27953 2.89928 -4.02692 5.65909 5.8725 8.47202
